# xmcd
# 
# Track frame offsets:
#     150
#     17650
#     34725
#     54400
#     69300
#     85000
#     103962
#     124700
#     141150
#     155225
#     175300
#     192387
#     211212
#     231450
#     252687
#     271725
#     291975
#     315810
#     332525
# 
# Disc length: 4649
# 
# Revision: 4
# Processed by: cddbd v1.5.2PL0 Copyright (c) Steve Scherf et al.
# Submitted via: BonkEnc v1.0.6
# 
DISCID=16122713
DTITLE=テレサ〜テン - メモリアルベスト
DYEAR=2005
DGENRE=Pop
TTITLE0=01-つぐない
TTITLE1=02-空港
TTITLE2=03-アカシアの夢
TTITLE3=04-夜のフェリーボート
TTITLE4=05-Ni（あなた）
TTITLE5=06-ジェルソミーナの歩いた道
TTITLE6=07-春を待つ花
TTITLE7=08-香港の夜
TTITLE8=09-逢う時はいつも他人
TTITLE9=10-ふたたびの
TTITLE10=11-愛人
TTITLE11=12-時の流れに身をまかせ
TTITLE12=13-別れの予感
TTITLE13=14-恋人たちの神話
TTITLE14=15-悲しい自由
TTITLE15=16-涙の条件
TTITLE16=17-愛の陽射し~アモーレ−ミオ
TTITLE17=18-夕凪
TTITLE18=19-何日君再来
EXTD=YEAR: 2005
EXTT0=
EXTT1=
EXTT2=
EXTT3=
EXTT4=
EXTT5=
EXTT6=
EXTT7=
EXTT8=
EXTT9=
EXTT10=
EXTT11=
EXTT12=
EXTT13=
EXTT14=
EXTT15=
EXTT16=
EXTT17=
EXTT18=
PLAYORDER=
